<?xml version="1.0" encoding="utf-8"?>
<!-- Generator: Adobe Illustrator 25.4.6, SVG Export Plug-In . SVG Version: 6.00 Build 0)  -->
<svg version="1.1" id="Layer_1" xmlns="http://www.w3.org/2000/svg" xmlns:xlink="http://www.w3.org/1999/xlink" x="0px" y="0px"
	 viewBox="0 0 835 234.7" style="enable-background:new 0 0 835 234.7;" xml:space="preserve">
<style type="text/css">
	.st0{fill:#1E1E1E;}
</style>
<g>
	<g>
		<path class="st0" d="M114.6,108.9c21.6-5.8,28.3-22.6,28.3-45.4v-8.4C142.9,21.3,123.3,0,80.5,0H0v234.7h80.8
			c42.2,0,64.1-24.8,64.1-60.6v-15.1C144.9,133.1,136.8,115.1,114.6,108.9z M61.8,44.2h9.3c6.1,0,9.3,4.8,9.3,14.2v18.4
			c0,9-2.9,14.2-9,14.2h-9.7V44.2z M81.1,175.3c0,9.7-3.2,15.1-9.7,15.1h-9.7v-56.4h9.7c6.4,0,9.7,5.2,9.7,14.5V175.3z M237.6,0
			h-83.1v234.7h61.8v-93.2h9.7c5.5,0,8.4,3.5,8.4,11.6v81.5h62.1v-79c0-23.9-6.8-38.4-27.4-43.5c20.9-6.1,28.3-23.5,28.3-50.3v-3.5
			C297.4,23.2,278.1,0,237.6,0z M235,81.2c0,10.3-2.6,16.1-9,16.1h-9.7V44.2h9.7c6.1,0,9,4.8,9,13.9V81.2z M333.8,0l-33.2,234.7
			h60.5l1.6-23.9h25.1l2.3,23.9h64.1L419.1,0H333.8z M366.6,160.5l7.4-99l9,99H366.6z M551.1,125.4L525.7,0h-67v234.7H515V110.6
			l26.1,124.1h66.3V0h-56.3V125.4z M693.4,0H619v234.7h74.4c44.4,0,69.5-21.9,69.5-68.3V70.9C762.9,24.5,737.8,0,693.4,0z
			 M700.5,176c0,9.3-3.5,14.5-9.3,14.5h-10.3V44.2h10.3c5.8,0,9.3,5.2,9.3,14.5V176z M773.2,53.6v181.1H835V53.6H773.2z"/>
	</g>
</g>
</svg>
